<svg viewBox="0 0 50 50" fill="none" xmlns="http://www.w3.org/2000/svg">
<path d="M36.4584 25C42.7866 25 47.9167 30.1301 47.9167 36.4583C47.9167 42.7866 42.7866 47.9167 36.4584 47.9167C30.1301 47.9167 25 42.7866 25 36.4583C25 30.1301 30.1301 25 36.4584 25ZM25.0464 29.1652C24.4283 30.1304 23.9293 31.1792 23.5701 32.2909L8.86157 32.2915C7.99863 32.2915 7.29907 32.9911 7.29907 33.854V35.7442C7.29907 37.1102 7.89489 38.4082 8.93067 39.2987C11.5517 41.5521 15.5017 42.7106 20.8334 42.7106C22.0809 42.7106 23.253 42.6471 24.3503 42.5211C24.8689 43.5631 25.5226 44.5292 26.2856 45.3969C24.6144 45.6902 22.7958 45.8356 20.8334 45.8356C14.8136 45.8356 10.1494 44.4676 6.8934 41.6683C5.1671 40.1842 4.17407 38.0208 4.17407 35.7442V33.854C4.17407 31.2652 6.27274 29.1665 8.86157 29.1665L25.0464 29.1652ZM36.4584 29.1651L36.2711 29.1819C35.8459 29.259 35.5107 29.5943 35.4335 30.0195L35.4167 30.2067L35.416 35.4151L30.2035 35.4167L30.0162 35.4334C29.591 35.5106 29.2558 35.8459 29.1786 36.2711L29.1618 36.4583L29.1786 36.6456C29.2558 37.0708 29.591 37.406 30.0162 37.4832L30.2035 37.5L35.418 37.4984L35.419 42.7156L35.4358 42.9028C35.513 43.328 35.8482 43.6633 36.2734 43.7405L36.4607 43.7573L36.6479 43.7405C37.0731 43.6633 37.4084 43.328 37.4855 42.9028L37.5023 42.7156L37.5014 37.4984L42.7179 37.5L42.9051 37.4832C43.3303 37.406 43.6656 37.0708 43.7428 36.6456L43.7595 36.4583L43.7428 36.2711C43.6656 35.8459 43.3303 35.5106 42.9051 35.4334L42.7179 35.4167L37.4993 35.4151L37.5 30.2067L37.4832 30.0195C37.4061 29.5943 37.0708 29.259 36.6456 29.1819L36.4584 29.1651ZM20.834 4.16769C21.6251 4.16769 22.2788 4.75552 22.3823 5.51817L22.3966 5.73019L22.3949 7.29061L29.6875 7.29166C32.2764 7.29166 34.375 9.39033 34.375 11.9792V21.3637C34.375 21.9911 34.2518 22.5897 34.0282 23.1366C31.6838 23.559 29.5502 24.587 27.7932 26.0516L11.9792 26.0512C9.39036 26.0512 7.29169 23.9526 7.29169 21.3637V11.9792C7.29169 9.39033 9.39036 7.29166 11.9792 7.29166L19.2699 7.29061L19.2715 5.73019C19.2715 5.01107 19.7574 4.40542 20.4187 4.22351L20.622 4.18196L20.834 4.16769ZM29.6875 10.4167H11.9792C11.1162 10.4167 10.4167 11.1162 10.4167 11.9792V21.3637C10.4167 22.2267 11.1162 22.9262 11.9792 22.9262H29.6875C30.5505 22.9262 31.25 22.2267 31.25 21.3637V11.9792C31.25 11.1162 30.5505 10.4167 29.6875 10.4167ZM16.1444 13.5417C17.5818 13.5417 18.7471 14.7069 18.7471 16.1443C18.7471 17.5818 17.5818 18.747 16.1444 18.747C14.707 18.747 13.5417 17.5818 13.5417 16.1443C13.5417 14.7069 14.707 13.5417 16.1444 13.5417ZM25.5042 13.5417C26.9417 13.5417 28.1069 14.7069 28.1069 16.1443C28.1069 17.5818 26.9417 18.747 25.5042 18.747C24.0668 18.747 22.9016 17.5818 22.9016 16.1443C22.9016 14.7069 24.0668 13.5417 25.5042 13.5417Z" fill="currentColor"/>
</svg>
