<svg viewBox="0 0 64 64" fill="none" xmlns="http://www.w3.org/2000/svg">
<path fill-rule="evenodd" clip-rule="evenodd" d="M27.8949 3.33333H36.105C40.3805 3.3333 43.7325 3.3333 46.4104 3.58792C49.1397 3.84744 51.3746 4.38552 53.345 5.59285C55.4082 6.85717 57.1429 8.59184 58.4072 10.655C59.6144 12.6252 60.1525 14.8602 60.412 17.5896C60.6666 20.2674 60.6666 23.6193 60.6666 27.8949V30.7408C60.6666 33.7843 60.6666 36.1707 60.5352 38.0981C60.4013 40.0595 60.1248 41.6917 59.4994 43.2011C57.9432 46.9581 54.9581 49.9432 51.201 51.4995C49.0546 52.3885 46.6096 52.5859 43.2621 52.6435C42.0912 52.6637 41.3496 52.6787 40.7842 52.7411C40.256 52.7997 40.0512 52.8853 39.9312 52.9552C39.8048 53.0285 39.6325 53.1627 39.3336 53.5728C39.0098 54.0171 38.6442 54.6307 38.0645 55.6104L36.6189 58.0525C34.556 61.5379 29.444 61.5379 27.381 58.0525L25.9354 55.6104C25.3556 54.6307 24.9899 54.0171 24.6662 53.5728C24.3672 53.1627 24.195 53.0285 24.0686 52.9552C23.9487 52.8853 23.744 52.7997 23.2157 52.7411C22.6503 52.6787 21.9086 52.6637 20.7377 52.6435C17.3903 52.5859 14.9454 52.3885 12.7988 51.4995C9.04174 49.9432 6.05673 46.9581 4.50049 43.2011C3.87526 41.6917 3.59865 40.0595 3.46483 38.0981C3.33329 36.1707 3.33331 33.7843 3.33331 30.7408V27.8949C3.33329 23.6194 3.33329 20.2674 3.5879 17.5896C3.84742 14.8602 4.3855 12.6252 5.59283 10.655C6.85715 8.59184 8.59182 6.85717 10.655 5.59285C12.6252 4.38552 14.8601 3.84744 17.5896 3.58792C20.2674 3.3333 23.6193 3.3333 27.8949 3.33333ZM17.9682 7.56994C15.5316 7.80162 13.9811 8.24594 12.745 9.00341C11.22 9.93792 9.9379 11.22 9.00339 12.745C8.24593 13.9811 7.80161 15.5316 7.56993 17.9682C7.33542 20.4347 7.33331 23.5967 7.33331 28V30.6667C7.33331 33.8003 7.33441 36.0504 7.45555 37.8259C7.57547 39.5835 7.8063 40.7296 8.19601 41.6704C9.34627 44.4475 11.5526 46.6536 14.3296 47.804C15.7046 48.3736 17.4588 48.5864 20.8066 48.6443L20.8915 48.6456C21.9528 48.664 22.8829 48.6797 23.6559 48.7653C24.4865 48.8573 25.2989 49.0432 26.0796 49.4973C26.8538 49.9477 27.412 50.5491 27.8989 51.2168C28.3485 51.8341 28.8106 52.6149 29.3344 53.4995L30.8232 56.0152C31.3373 56.8835 32.6626 56.8835 33.1765 56.0152L34.6656 53.4995C35.189 52.6149 35.6512 51.8341 36.101 51.2168C36.5877 50.5491 37.1461 49.9477 37.9202 49.4973C38.701 49.0432 39.5133 48.8573 40.344 48.7653C41.117 48.6797 42.0469 48.664 43.1082 48.6456L43.1933 48.6443C46.541 48.5864 48.2954 48.3736 49.6704 47.804C52.4474 46.6536 54.6536 44.4475 55.804 41.6704C56.1936 40.7296 56.4245 39.5835 56.5445 37.8259C56.6656 36.0504 56.6666 33.8003 56.6666 30.6667V28C56.6666 23.5967 56.6645 20.4347 56.4301 17.9682C56.1984 15.5316 55.7541 13.9811 54.9965 12.745C54.0621 11.22 52.78 9.93792 51.2549 9.00341C50.0189 8.24594 48.4685 7.80162 46.0317 7.56994C43.5653 7.33544 40.4032 7.33333 36 7.33333H28C23.5967 7.33333 20.4346 7.33544 17.9682 7.56994ZM19.3333 24C19.3333 22.8954 20.2288 22 21.3333 22H42.6666C43.7712 22 44.6666 22.8954 44.6666 24C44.6666 25.1046 43.7712 26 42.6666 26H21.3333C20.2288 26 19.3333 25.1046 19.3333 24ZM19.3333 33.3333C19.3333 32.2288 20.2288 31.3333 21.3333 31.3333H36C37.1045 31.3333 38 32.2288 38 33.3333C38 34.4379 37.1045 35.3333 36 35.3333H21.3333C20.2288 35.3333 19.3333 34.4379 19.3333 33.3333Z" fill="currentColor"/>
</svg>
