<svg viewBox="0 0 66 66" fill="none" xmlns="http://www.w3.org/2000/svg">
<g clip-path="url(#clip0_78_907)">
<path d="M50.3786 63.9375H48.6214V59.8125H50.3786V63.9375ZM42.1286 63.9375H40.3714V59.8125H42.1286V63.9375ZM33.8766 63.9375H32.1214V59.8125H33.8766V63.9375ZM25.6266 63.9375H23.8714V59.8125H25.6266V63.9375ZM17.3766 63.9375H15.6234V59.8125H17.3786L17.3766 63.9375ZM55.6875 56.5661H10.3125C9.82781 56.5661 9.43594 56.1743 9.43594 55.6875V10.3125C9.43594 9.82781 9.82781 9.43594 10.3125 9.43594H55.6875C56.1722 9.43594 56.5661 9.82781 56.5661 10.3125V55.6875C56.5661 56.1722 56.1722 56.5661 55.6875 56.5661ZM11.1891 54.8089H54.8089V11.1911H11.1891V54.8089ZM63.9375 50.3786H59.8125V48.6214H63.9375V50.3786ZM6.1875 50.3786H2.0625V48.6214H6.1875V50.3786ZM43.3125 44.1911H22.6875C22.2028 44.1911 21.8109 43.7993 21.8109 43.3125V22.6875C21.8109 22.2028 22.2028 21.8109 22.6875 21.8109H43.3125C43.7972 21.8109 44.1911 22.2028 44.1911 22.6875V43.3125C44.1911 43.7972 43.7972 44.1911 43.3125 44.1911ZM23.5641 42.4339H42.4339V23.5641H23.5641V42.4339ZM63.9375 42.1286H59.8125V40.3714H63.9375V42.1286ZM6.1875 42.1286H2.0625V40.3714H6.1875V42.1286ZM63.9375 33.8766H59.8125V32.1214H63.9375V33.8766ZM6.1875 33.8766H2.0625V32.1214H6.1875V33.8766ZM63.9375 25.6266H59.8125V23.8714H63.9375V25.6266ZM6.1875 25.6266H2.0625V23.8714H6.1875V25.6266ZM63.9375 17.3766H59.8125V15.6234H63.9375V17.3766ZM6.1875 17.3766H2.0625V15.6234H6.1875V17.3766ZM50.3786 6.1875H48.6214V2.0625H50.3786V6.1875ZM42.1286 6.1875H40.3714V2.0625H42.1286V6.1875ZM33.8766 6.1875H32.1214V2.0625H33.8766V6.1875ZM25.6266 6.1875H23.8714V2.0625H25.6266V6.1875ZM17.3766 6.1875H15.6234V2.0625H17.3786L17.3766 6.1875Z" fill="currentColor"/>
</g>
<defs>
<clipPath id="clip0_78_907">
<rect width="66" height="66" fill="white"/>
</clipPath>
</defs>
</svg>
