<svg viewBox="0 0 50 50" fill="none" xmlns="http://www.w3.org/2000/svg">
<path d="M36.6342 17.4207C36.6342 7.80236 28.8342 0.000793457 19.2126 0.000793457C9.59108 0.000793457 1.79272 7.80236 1.79272 17.4207C1.79272 19.4301 2.02865 20.7381 2.69309 22.7491C3.98827 26.4821 10.7739 19.4574 13.6933 23.5997C16.6127 27.7452 7.10825 31.382 13.4814 33.8696C16.3831 34.5726 17.2033 34.839 19.2126 34.839C28.8342 34.8406 36.6342 27.0439 36.6342 17.4207ZM34.8591 16.3952C34.8591 18.0851 33.2478 19.4574 31.2609 19.4574C29.2756 19.4574 27.6642 18.0868 27.6642 16.3952C27.6642 14.7036 29.2739 13.3313 31.2609 13.3313C33.2478 13.3329 34.8591 14.7052 34.8591 16.3952ZM27.6642 5.80743C29.6495 5.80743 31.2609 7.17965 31.2609 8.87124C31.2609 10.5628 29.6527 11.9351 27.6642 11.9351C25.6757 11.9351 24.0676 10.5628 24.0676 8.87124C24.0676 7.17965 25.6773 5.80743 27.6642 5.80743ZM7.34899 18.5185C5.36209 18.5185 3.75234 17.1479 3.75234 15.4563C3.75234 13.7647 5.36209 12.3925 7.34899 12.3925C9.3359 12.3925 10.9456 13.7647 10.9456 15.4563C10.9456 17.1479 9.3359 18.5185 7.34899 18.5185ZM11.5619 11.4664C9.57503 11.4664 7.96529 10.0958 7.96529 8.40421C7.96529 6.71261 9.57503 5.3404 11.5619 5.3404C13.5488 5.3404 15.1602 6.71261 15.1602 8.40421C15.1602 10.0958 13.5488 11.4664 11.5619 11.4664ZM15.9466 4.91028C15.9466 3.21868 17.558 1.84646 19.5449 1.84646C21.5318 1.84646 23.1431 3.21868 23.1431 4.91028C23.1431 6.60187 21.5334 7.97248 19.5449 7.97248C17.558 7.97248 15.9466 6.60187 15.9466 4.91028ZM22.116 32.3771C20.1274 32.3771 18.5177 31.0064 18.5177 29.3132C18.5177 27.6216 20.1274 26.251 22.116 26.251C24.1013 26.251 25.7126 27.6216 25.7126 29.3132C25.7126 31.0048 24.1013 32.3771 22.116 32.3771ZM25.7126 24.0715C25.7126 22.3799 27.3224 21.0077 29.3093 21.0077C31.2962 21.0077 32.9075 22.3799 32.9075 24.0715C32.9075 25.7631 31.2962 27.1354 29.3093 27.1354C27.3224 27.1354 25.7126 25.7631 25.7126 24.0715Z" fill="currentColor"/>
<path d="M47.7339 27.3183C48.3357 26.7357 48.3694 25.7728 47.7997 25.1308C47.2267 24.4904 46.2622 24.4166 45.6186 24.9494L45.6154 24.9446L30.7296 38.2479C28.6448 36.4809 26.6836 36.8949 24.4303 38.9107C22.5493 40.5911 22.1946 43.3901 21.1322 45.8906C20.7791 46.6256 20.0713 47.8325 19.5449 48.4761C19.1661 48.9383 19.1356 49.2802 19.3507 49.5209C19.8964 50.1324 22.0357 50.0971 24.1928 49.752V49.7504C26.9548 49.3091 30.0957 48.2691 31.4053 46.876C33.6667 44.467 33.97 42.6759 32.7888 40.689L47.7403 27.3263L47.7339 27.3183ZM23.7129 48.5692C23.6679 48.7538 23.623 48.9335 23.5829 49.1004C21.5093 49.3909 20.373 49.2497 20.0039 49.094C20.028 49.0555 20.0633 49.0057 20.113 48.9432C20.5367 48.4248 21.0631 47.5774 21.4596 46.8535C22.2123 47.1601 23.1303 47.2933 24.0258 47.2291C23.9344 47.6592 23.8188 48.1423 23.7129 48.5692Z" fill="currentColor"/>
</svg>
