<svg viewBox="0 0 50 50" fill="none" xmlns="http://www.w3.org/2000/svg">
<g clip-path="url(#clip0_159_707)">
<path d="M21.5924 46.1022C20.5157 46.1022 19.6448 46.9769 19.6448 48.0472C19.6448 49.1246 20.5155 50 21.5924 50C22.6686 50 23.5401 49.1246 23.5401 48.0472C23.5401 46.9769 22.6689 46.1022 21.5924 46.1022Z" fill="currentColor"/>
<path d="M25.0001 0C16.4305 0 9.45844 6.97203 9.45844 15.5417C9.45844 16.5648 10.2879 17.3943 11.311 17.3943C12.3341 17.3943 13.1635 16.5648 13.1635 15.5417C13.1635 9.01503 18.4735 3.70511 25.0001 3.70511C31.5266 3.70511 36.8363 9.01503 36.8363 15.5417C36.8363 22.0689 31.5266 27.3791 25.0001 27.3791C24.9362 27.3791 24.8727 27.3823 24.8102 27.3887C22.0615 27.4875 19.8483 29.7007 19.7495 32.4491C19.7431 32.5116 19.7399 32.5749 19.7399 32.6391V40.277C19.7399 41.3001 20.5693 42.1296 21.5924 42.1296C22.6155 42.1296 23.445 41.3001 23.445 40.277V32.6391C23.445 31.7817 24.1425 31.0842 25.0001 31.0842C33.5696 31.0842 40.5414 24.1119 40.5414 15.5417C40.5414 6.97203 33.5698 0 25.0001 0Z" fill="currentColor"/>
</g>
<defs>
<clipPath id="clip0_159_707">
<rect width="50" height="50" fill="white"/>
</clipPath>
</defs>
</svg>
