<svg viewBox="0 0 50 50" fill="none" xmlns="http://www.w3.org/2000/svg">
<path d="M45.8333 2.08333H31.25C30.0572 2.07845 28.9007 2.49314 27.9829 3.25485C27.065 4.01657 26.4442 5.07679 26.2291 6.25L24.3125 16.7708C24.18 17.5038 24.2103 18.257 24.4011 18.977C24.5919 19.697 24.9386 20.3663 25.4166 20.9375C25.8974 21.509 26.4967 21.969 27.173 22.2856C27.8494 22.6022 28.5865 22.7677 29.3333 22.7708H35.4166L34.8958 24.1458C34.5113 25.1654 34.3778 26.2624 34.5064 27.3444C34.6351 28.4264 35.0222 29.4616 35.6351 30.3625C36.2479 31.2635 37.0686 32.0037 38.0277 32.5208C38.9869 33.0378 40.0563 33.3165 41.1458 33.3333C41.5501 33.3365 41.9466 33.222 42.2869 33.0038C42.6273 32.7855 42.8967 32.4729 43.0625 32.1042L47.7291 21.5625C47.8354 21.3328 47.899 21.0858 47.9166 20.8333V4.16667C47.9166 3.61413 47.6972 3.08423 47.3065 2.69353C46.9158 2.30283 46.3858 2.08333 45.8333 2.08333ZM43.75 20.2708L39.9375 28.875C39.5654 28.6725 39.2447 28.3874 39 28.0417C38.7548 27.6946 38.5998 27.292 38.5489 26.8702C38.498 26.4483 38.5527 26.0204 38.7083 25.625L39.5 23.5417C39.7082 23.0013 39.7792 22.4178 39.7065 21.8433C39.6338 21.2688 39.4196 20.7214 39.0833 20.25C38.7521 19.7804 38.3116 19.3985 37.7998 19.1372C37.2881 18.8758 36.7204 18.743 36.1458 18.75H29.2916C29.1532 18.7504 29.0164 18.7208 28.8905 18.6632C28.7647 18.6057 28.6527 18.5216 28.5625 18.4167C28.4008 18.1945 28.3334 17.9174 28.375 17.6458L30.2916 7.22917C30.2827 7.10005 30.3011 6.97049 30.3458 6.84903C30.3906 6.72756 30.4605 6.61694 30.551 6.52444C30.6415 6.43194 30.7506 6.35966 30.8711 6.31236C30.9916 6.26506 31.1207 6.2438 31.25 6.25H43.75V20.2708ZM20.7083 27.1875H14.6875L15.2083 25.8125C15.5873 24.787 15.7131 23.6852 15.575 22.6007C15.437 21.5162 15.0391 20.481 14.4154 19.5832C13.7916 18.6853 12.9603 17.9514 11.9921 17.4436C11.0239 16.9358 9.94741 16.6693 8.85415 16.6667C8.44985 16.6635 8.05337 16.778 7.71304 16.9962C7.3727 17.2145 7.10323 17.5271 6.93748 17.8958L2.27081 28.4375C2.15143 28.6993 2.08759 28.9831 2.08331 29.2708V45.9375C2.08331 46.49 2.30281 47.0199 2.69351 47.4106C3.08421 47.8013 3.61411 48.0208 4.16665 48.0208H18.75C19.9427 48.0257 21.0992 47.611 22.0171 46.8493C22.935 46.0876 23.5557 45.0274 23.7708 43.8542L25.6875 33.4375C25.82 32.7045 25.7897 31.9513 25.5989 31.2313C25.4081 30.5113 25.0614 29.842 24.5833 29.2708C24.1316 28.6587 23.5497 28.1544 22.8797 27.7942C22.2096 27.4339 21.4681 27.2267 20.7083 27.1875ZM19.7083 42.9792C19.6725 43.2036 19.5547 43.4067 19.3776 43.5491C19.2005 43.6916 18.9769 43.7632 18.75 43.75H6.24998V29.7292L10.0625 21.125C10.4346 21.3275 10.7553 21.6125 11 21.9583C11.2452 22.3054 11.4002 22.708 11.4511 23.1298C11.502 23.5517 11.4472 23.9796 11.2916 24.375L10.5 26.4583C10.2917 26.9986 10.2208 27.5822 10.2935 28.1567C10.3662 28.7312 10.5803 29.2786 10.9166 29.75C11.2432 30.2273 11.6817 30.6173 12.1937 30.886C12.7058 31.1548 13.2759 31.294 13.8541 31.2917H20.7083C20.8467 31.2913 20.9836 31.3209 21.1094 31.3784C21.2353 31.436 21.3472 31.5201 21.4375 31.625C21.5992 31.8472 21.6666 32.1242 21.625 32.3958L19.7083 42.9792Z" fill="currentColor"/>
</svg>
