<svg viewBox="0 0 50 50" fill="none" xmlns="http://www.w3.org/2000/svg">
<path d="M14.5833 33.3333H4.16665C3.01606 33.3333 2.08331 32.4006 2.08331 31.25C2.08331 30.0994 3.01606 29.1667 4.16665 29.1667H14.5833C18.0351 29.1667 20.8333 31.9648 20.8333 35.4167V45.8333C20.8333 46.9839 19.9006 47.9167 18.75 47.9167C17.5994 47.9167 16.6666 46.9839 16.6666 45.8333V35.4167C16.6666 34.266 15.7339 33.3333 14.5833 33.3333Z" fill="currentColor"/>
<path d="M20.8333 4.16668C20.8333 3.01609 19.9006 2.08334 18.75 2.08334C17.5994 2.08334 16.6666 3.01609 16.6666 4.16668V14.5833C16.6666 15.7339 15.7339 16.6667 14.5833 16.6667H4.16665C3.01606 16.6667 2.08331 17.5994 2.08331 18.75C2.08331 19.9006 3.01606 20.8333 4.16665 20.8333H14.5833C18.0351 20.8333 20.8333 18.0351 20.8333 14.5833V4.16668Z" fill="currentColor"/>
<path d="M29.1667 45.8333C29.1667 46.9839 30.0994 47.9167 31.25 47.9167C32.4006 47.9167 33.3334 46.9839 33.3334 45.8333V35.4167C33.3334 34.266 34.2661 33.3333 35.4167 33.3333H45.8334C46.984 33.3333 47.9167 32.4006 47.9167 31.25C47.9167 30.0994 46.984 29.1667 45.8334 29.1667H35.4167C31.9648 29.1667 29.1667 31.9648 29.1667 35.4167V45.8333Z" fill="currentColor"/>
<path d="M29.1667 14.5833C29.1667 18.0351 31.9648 20.8333 35.4167 20.8333H45.8334C46.984 20.8333 47.9167 19.9006 47.9167 18.75C47.9167 17.5994 46.984 16.6667 45.8334 16.6667H35.4167C34.2661 16.6667 33.3334 15.7339 33.3334 14.5833V4.16668C33.3334 3.01609 32.4006 2.08334 31.25 2.08334C30.0994 2.08334 29.1667 3.01609 29.1667 4.16668V14.5833Z" fill="currentColor"/>
</svg>
