<svg viewBox="0 0 50 50" fill="none" xmlns="http://www.w3.org/2000/svg">
<path d="M47.9167 8.33334C47.9167 4.88157 45.1185 2.08334 41.6667 2.08334H33.3333C32.1827 2.08334 31.25 3.01609 31.25 4.16668C31.25 5.31726 32.1827 6.25001 33.3333 6.25001H41.6667C42.8173 6.25001 43.75 7.18276 43.75 8.33334V16.6667C43.75 17.8173 44.6827 18.75 45.8333 18.75C46.984 18.75 47.9167 17.8173 47.9167 16.6667V8.33334Z" fill="currentColor"/>
<path d="M47.9167 33.3333C47.9167 32.1827 46.984 31.25 45.8333 31.25C44.6827 31.25 43.75 32.1827 43.75 33.3333V41.6667C43.75 42.8173 42.8173 43.75 41.6667 43.75H33.3333C32.1827 43.75 31.25 44.6827 31.25 45.8333C31.25 46.984 32.1827 47.9167 33.3333 47.9167H41.6667C45.1185 47.9167 47.9167 45.1185 47.9167 41.6667V33.3333Z" fill="currentColor"/>
<path d="M8.33331 43.75H16.6666C17.8172 43.75 18.75 44.6827 18.75 45.8333C18.75 46.984 17.8172 47.9167 16.6666 47.9167H8.33331C4.88154 47.9167 2.08331 45.1185 2.08331 41.6667V33.3333C2.08331 32.1827 3.01606 31.25 4.16665 31.25C5.31723 31.25 6.24998 32.1827 6.24998 33.3333V41.6667C6.24998 42.8173 7.18273 43.75 8.33331 43.75Z" fill="currentColor"/>
<path d="M2.08331 16.6667C2.08331 17.8173 3.01606 18.75 4.16665 18.75C5.31723 18.75 6.24998 17.8173 6.24998 16.6667V8.33334C6.24998 7.18276 7.18273 6.25001 8.33331 6.25001H16.6666C17.8172 6.25001 18.75 5.31726 18.75 4.16668C18.75 3.01609 17.8172 2.08334 16.6666 2.08334H8.33331C4.88154 2.08334 2.08331 4.88157 2.08331 8.33334V16.6667Z" fill="currentColor"/>
</svg>
