<svg viewBox="0 0 50 50" fill="none" xmlns="http://www.w3.org/2000/svg">
<g clip-path="url(#clip0_117_1291)">
<mask id="mask0_117_1291" style="mask-type:luminance" maskUnits="userSpaceOnUse" x="0" y="0" width="50" height="50">
<path d="M50 0H0V50H50V0Z" fill="white"/>
</mask>
<g mask="url(#mask0_117_1291)">
<path d="M37.9562 48.3078H12.0453C10.4226 48.3062 8.86684 47.6608 7.71942 46.5134C6.572 45.366 5.92664 43.8102 5.92499 42.1875V7.81249C5.92664 6.18979 6.572 4.63403 7.71942 3.4866C8.86684 2.33918 10.4226 1.69382 12.0453 1.69217H37.9562C39.5788 1.69424 41.1343 2.33972 42.2817 3.48706C43.429 4.63439 44.0745 6.18992 44.0766 7.81249V42.1875C44.0745 43.8101 43.429 45.3656 42.2817 46.5129C41.1343 47.6603 39.5788 48.3057 37.9562 48.3078ZM12.0453 4.81717C11.2512 4.818 10.4898 5.13386 9.92823 5.69541C9.36668 6.25696 9.05081 7.01834 9.04999 7.81249V42.1875C9.05081 42.9816 9.36668 43.743 9.92823 44.3046C10.4898 44.8661 11.2512 45.182 12.0453 45.1828H37.9562C38.7504 45.182 39.5118 44.8661 40.0733 44.3046C40.6349 43.743 40.9508 42.9816 40.9516 42.1875V7.81249C40.9508 7.01834 40.6349 6.25696 40.0733 5.69541C39.5118 5.13386 38.7504 4.818 37.9562 4.81717H12.0453Z" fill="currentColor"/>
<path d="M15.2718 9.99998H17.7281L21.314 20.1375H19.0625L18.3765 18.075H14.5312L13.8672 20.1375H11.6797L15.2718 9.99998ZM15.125 16.3312H17.8125L16.4672 12.2547L15.125 16.3312Z" fill="currentColor"/>
<path d="M36.6859 27.6969H13.2484C12.834 27.6969 12.4366 27.5322 12.1435 27.2392C11.8505 26.9462 11.6859 26.5488 11.6859 26.1344C11.6859 25.72 11.8505 25.3225 12.1435 25.0295C12.4366 24.7365 12.834 24.5719 13.2484 24.5719H36.6859C37.1003 24.5719 37.4977 24.7365 37.7907 25.0295C38.0838 25.3225 38.2484 25.72 38.2484 26.1344C38.2484 26.5488 38.0838 26.9462 37.7907 27.2392C37.4977 27.5322 37.1003 27.6969 36.6859 27.6969Z" fill="currentColor"/>
<path d="M36.6859 33.8813H13.2484C12.834 33.8813 12.4366 33.7166 12.1435 33.4236C11.8505 33.1306 11.6859 32.7332 11.6859 32.3188C11.6859 31.9044 11.8505 31.5069 12.1435 31.2139C12.4366 30.9209 12.834 30.7563 13.2484 30.7563H36.6859C37.1003 30.7563 37.4977 30.9209 37.7907 31.2139C38.0838 31.5069 38.2484 31.9044 38.2484 32.3188C38.2484 32.7332 38.0838 33.1306 37.7907 33.4236C37.4977 33.7166 37.1003 33.8813 36.6859 33.8813Z" fill="currentColor"/>
<path d="M36.7515 40H13.314C12.8996 40 12.5022 39.8354 12.2092 39.5424C11.9162 39.2493 11.7515 38.8519 11.7515 38.4375C11.7515 38.0231 11.9162 37.6257 12.2092 37.3326C12.5022 37.0396 12.8996 36.875 13.314 36.875H36.7515C37.1659 36.875 37.5634 37.0396 37.8564 37.3326C38.1494 37.6257 38.314 38.0231 38.314 38.4375C38.314 38.8519 38.1494 39.2493 37.8564 39.5424C37.5634 39.8354 37.1659 40 36.7515 40Z" fill="currentColor"/>
</g>
</g>
<defs>
<clipPath id="clip0_117_1291">
<rect width="50" height="50" fill="white"/>
</clipPath>
</defs>
</svg>
