<svg viewBox="0 0 69 69" fill="none" xmlns="http://www.w3.org/2000/svg">
<path d="M30.1875 62.5312C30.1875 64.9031 32.1281 66.8438 34.5 66.8438C36.8719 66.8438 38.8125 64.9031 38.8125 62.5312H30.1875Z" fill="#616466"/>
<path d="M26.8453 51.75H42.0469C42.9094 47.1141 45.8203 42.5859 48.8391 37.8422C52.3969 32.3437 56.0625 26.6297 56.0625 21.1313C56.0625 10.6734 46.3594 2.15625 34.5 2.15625C22.6406 2.15625 12.9375 10.6734 12.9375 21.1313C12.9375 26.6297 16.6031 32.3437 20.0531 37.8422C23.0719 42.5859 25.9828 47.1141 26.8453 51.75Z" fill="#FFCE31"/>
<path d="M28.4625 36.225C28.5703 36.8719 28.7859 37.5188 28.8937 38.1656C29.2172 39.3516 29.4328 40.4297 29.7562 41.6156C30.7265 45.7125 31.589 49.1625 32.3437 51.8578H32.9906C32.4515 49.1625 31.6969 45.6047 30.7265 41.5078C30.5109 40.4297 30.1875 39.2438 29.9719 38.0578C29.864 37.5188 29.7562 36.8719 29.5406 36.3328C30.4031 36.1172 32.4515 35.4703 34.5 33.2063C36.5484 35.4703 38.5968 36.1172 39.4593 36.3328C39.3515 36.9797 39.2437 37.5188 39.0281 38.0578C38.8125 39.2438 38.489 40.4297 38.2734 41.5078C37.3031 45.6047 36.5484 49.1625 36.0094 51.8578H36.6562C37.3031 49.1625 38.2734 45.7125 39.2437 41.6156C39.4594 40.5375 39.7828 39.3516 40.1062 38.1656C40.214 37.5188 40.4297 36.8719 40.5375 36.225C41.4 36.1172 42.1547 35.9016 42.6937 35.3625C43.3406 34.7156 43.664 33.9609 43.4484 33.0984C43.3406 32.6672 43.125 32.1281 42.4781 32.0203C42.1547 31.9125 41.939 31.9125 41.6156 32.0203C41.2922 32.1281 41.0765 32.3438 40.9687 32.4516C40.4297 33.0984 40.214 33.7453 39.9984 34.3922L39.675 35.3625C39.675 35.3625 38.8125 35.4703 36.764 34.0688C35.6859 33.3141 35.3625 32.775 35.039 32.4516C35.3625 32.0203 35.6859 31.6969 36.0094 31.1578C36.1172 30.8344 36.225 30.6188 36.3328 30.1875C36.3328 29.8641 36.3328 29.4328 36.1172 29.1094C35.9015 28.7859 35.6859 28.4625 35.1468 28.2469C34.9312 28.1391 34.7156 28.1391 34.5 28.1391C34.2844 28.1391 34.0687 28.1391 33.8531 28.2469C33.4219 28.4625 33.0984 28.7859 32.8828 29.1094C32.6672 29.4328 32.6672 29.8641 32.6672 30.1875C32.6672 30.5109 32.775 30.8344 32.9906 31.1578C33.2062 31.6969 33.5297 32.1281 33.9609 32.4516C33.6375 32.775 33.314 33.3141 32.2359 34.0688C30.2953 35.3625 29.325 35.3625 29.325 35.3625L29.0015 34.3922C28.7859 33.7453 28.5703 33.0984 28.0312 32.4516C27.9234 32.3438 27.7078 32.1281 27.3844 32.0203C27.0609 31.9125 26.7375 31.9125 26.5219 32.0203C25.875 32.2359 25.6594 32.775 25.5515 33.0984C25.4437 33.9609 25.7672 34.7156 26.3062 35.3625C26.9531 35.9016 27.7078 36.1172 28.4625 36.225ZM40.9687 34.6078C41.1844 34.0688 41.4 33.4219 41.8312 33.0984C41.939 32.9906 42.0469 32.9906 42.0469 32.9906H42.2625C42.3703 32.9906 42.4781 33.0984 42.5859 33.4219C42.6937 33.8531 42.4781 34.5 42.0469 34.8234C41.7234 35.0391 41.2922 35.2547 40.8609 35.3625C40.8609 35.0391 40.8609 34.8234 40.9687 34.6078ZM33.8531 29.4328C34.0687 29.2172 34.2844 29.0016 34.5 29.0016C34.7156 29.0016 34.9312 29.1094 35.1468 29.4328C35.3625 29.7563 35.2547 30.1875 35.039 30.6188C34.9312 30.9422 34.7156 31.2656 34.5 31.4813C34.2844 31.1578 34.0687 30.9422 33.9609 30.6188C33.7453 30.2953 33.6375 29.8641 33.8531 29.4328ZM26.5219 33.2063C26.5219 32.9906 26.6297 32.8828 26.8453 32.775H27.0609C27.0609 32.775 27.1687 32.8828 27.2765 32.8828C27.6 33.2063 27.9234 33.8531 28.139 34.3922C28.2469 34.6078 28.2469 34.8234 28.3547 35.0391C27.9234 34.9313 27.4922 34.8234 27.1687 34.5C26.7375 34.2844 26.5219 33.7453 26.5219 33.2063Z" fill="#C79127"/>
<path d="M26.8453 53.9062H42.2625V55.8469H26.8453V53.9062Z" fill="#94989B"/>
<path d="M27.9235 57.7875H41.1844V59.7281H27.9235V57.7875Z" fill="#94989B"/>
<path d="M27.9235 55.8469H41.1844V57.7875H27.9235V55.8469Z" fill="#616466"/>
<path d="M42.2625 53.9062L27.9235 57.7875V59.8359L42.2625 55.8469V53.9062Z" fill="#94989B"/>
<path d="M29.0016 61.7766H40.1063V63.7172H29.0016V61.7766Z" fill="#94989B"/>
<path d="M29.0016 59.8359H40.1063V61.7766H29.0016V59.8359Z" fill="#616466"/>
<path d="M41.1844 57.7875L29.0016 61.7766V63.825L41.1844 59.8359V57.7875Z" fill="#94989B"/>
</svg>
