<svg viewBox="0 0 69 69" fill="none" xmlns="http://www.w3.org/2000/svg">
<path d="M34.5 2.15625C22.6115 2.15625 12.9375 10.6616 12.9375 21.1162C12.9375 26.6469 16.5686 32.3416 20.0758 37.8443C23.0978 42.5805 25.9839 47.1011 26.8852 51.75H42.1137C43.0172 47.1 45.9001 42.5795 48.921 37.8443C52.4303 32.3416 56.0625 26.6469 56.0625 21.1162C56.0625 10.6616 46.3885 2.15625 34.5 2.15625ZM34.5 31.9923C36.5829 34.2402 38.5451 34.9086 39.4421 35.107C39.3074 35.7053 39.1855 36.2897 39.0443 36.8654C38.7791 38.0427 38.5203 39.1898 38.2691 40.2917C37.5692 43.3885 36.8881 46.4897 36.2261 49.5948H32.7728C32.1092 46.49 31.4282 43.3889 30.7298 40.2917L29.9525 36.8654C29.8112 36.2897 29.6894 35.7053 29.5568 35.107C30.4549 34.9086 32.4171 34.2402 34.5 31.9923ZM33.9189 29.6387C33.713 29.1935 33.6386 28.7385 33.8499 28.4032C34.0267 28.1369 34.2607 27.9849 34.5011 27.9849C34.7415 27.9849 34.9733 28.1369 35.1523 28.4032C35.3625 28.7385 35.2892 29.1924 35.0833 29.6387C34.9312 29.9535 34.7232 30.2533 34.5 30.5433C34.2745 30.2634 34.0797 29.9602 33.9189 29.6387ZM47.1044 36.6832C44.3196 41.0485 41.6717 45.1982 40.4167 49.5938H36.9172C37.6931 46.5558 38.4524 43.5136 39.1952 40.4674C39.4605 39.3667 39.7408 38.2271 40.0265 37.0519C40.186 36.4266 40.3273 35.7819 40.4836 35.1404C41.2987 35.0854 42.0781 34.831 42.6862 34.2736C43.3094 33.6601 43.6339 32.858 43.4883 32.002C43.4226 31.5923 43.1153 31.0619 42.5223 30.8807C42.2324 30.7829 41.9195 30.7758 41.6253 30.8603C41.3804 30.951 41.1597 31.0971 40.9806 31.2872C40.406 31.9254 40.1968 32.5626 39.9618 33.1944C39.8518 33.5124 39.7612 33.8305 39.675 34.1442C39.675 34.1442 38.7586 34.2143 36.7986 32.8957C35.7097 32.1637 35.3959 31.6343 35.08 31.284C35.4207 30.9055 35.7474 30.4905 36.0007 29.987C36.1355 29.7056 36.2487 29.4005 36.2875 29.0576C36.3263 28.7148 36.2627 28.3267 36.0665 27.9924C35.857 27.6219 35.5284 27.3331 35.1339 27.1731C34.9377 27.103 34.7189 27.0696 34.5 27.0696C34.2811 27.0696 34.0601 27.1019 33.8661 27.1731C33.4712 27.3333 33.1419 27.622 32.9313 27.9924C32.7351 28.3277 32.6726 28.7148 32.7103 29.0576C32.7538 29.3814 32.8515 29.6956 32.9993 29.987C33.2515 30.4905 33.5782 30.9066 33.92 31.284C33.6041 31.6343 33.2882 32.1637 32.1993 32.8957C30.2392 34.2154 29.3228 34.1442 29.3228 34.1442C29.2383 33.8246 29.1434 33.5078 29.0382 33.1944C28.8 32.5626 28.594 31.9254 28.0194 31.2872C27.8404 31.0969 27.6197 30.9507 27.3747 30.8603C27.0805 30.7758 26.7676 30.7829 26.4777 30.8807C25.8815 31.0619 25.5764 31.5923 25.5117 32.002C25.364 32.858 25.6906 33.6601 26.3138 34.2736C26.924 34.831 27.7013 35.0854 28.5164 35.1404C28.6706 35.783 28.8107 36.4266 28.9735 37.0519L29.8048 40.4674C30.5482 43.5135 31.3076 46.5556 32.0828 49.5938H28.5832C27.3305 45.2025 24.6815 41.0528 21.8892 36.6789C18.5481 31.436 15.0938 26.0152 15.0938 21.1162C15.0938 11.8508 23.7985 4.3125 34.5 4.3125C45.2004 4.3125 53.9062 11.8508 53.9062 21.1162C53.9062 26.0173 50.4487 31.4392 47.1044 36.6832ZM40.752 34.1377C40.8157 33.9167 40.8803 33.6925 40.9558 33.4769C41.1596 32.9087 41.4194 32.2909 41.773 31.9211C41.8571 31.8263 41.9434 31.7885 41.9876 31.7637C41.9876 31.768 42.0932 31.7508 42.1601 31.7842C42.2797 31.8144 42.394 31.9384 42.4382 32.1766C42.5245 32.6381 42.3056 33.2321 41.91 33.6041C41.6318 33.8682 41.2027 34.0537 40.752 34.1377ZM28.2458 34.1377C27.7951 34.0537 27.366 33.8682 27.09 33.603C26.6922 33.231 26.4755 32.637 26.5618 32.1756C26.606 31.9362 26.7192 31.8133 26.8399 31.7831C26.9078 31.7508 27.0124 31.767 27.0124 31.7626C27.0545 31.7874 27.1429 31.8263 27.2227 31.92C27.5784 32.2909 27.8372 32.9076 28.042 33.4758C28.1175 33.6925 28.1833 33.9167 28.2458 34.1377Z" fill="currentColor"/>
<path d="M28.5919 53.4286H27.5137V57.3099H28.3417V60.761H29.1697V64.212H30.5562C31.2085 65.7527 32.7178 66.8437 34.5 66.8437C36.281 66.8437 37.7893 65.7527 38.4438 64.2099H39.8744V60.7372L39.9952 60.693L40.7014 60.4343V57.2829L40.7714 57.2603L41.5272 57.0231V53.4276L28.5919 53.4286Z" fill="currentColor"/>
</svg>
