<svg viewBox="0 0 50 52" fill="none" xmlns="http://www.w3.org/2000/svg">
<path fill-rule="evenodd" clip-rule="evenodd" d="M11.875 16.875C11.875 9.62628 17.7513 3.75 25 3.75C31.1133 3.75 36.2545 7.93105 37.7115 13.5924C37.9697 14.5952 38.992 15.1989 39.9948 14.9408C40.9977 14.6827 41.6012 13.6605 41.3433 12.6576C39.47 5.37975 32.8657 0 25 0C15.6802 0 8.125 7.5552 8.125 16.875V22.0115C5.33812 22.2197 3.52327 22.745 2.1967 24.0718C0 26.2685 0 29.804 0 36.875C0 43.946 0 47.4815 2.1967 49.6782C4.3934 51.875 7.92893 51.875 15 51.875H35C42.071 51.875 45.6065 51.875 47.8032 49.6782C50 47.4815 50 43.946 50 36.875C50 29.804 50 26.2685 47.8032 24.0718C45.6065 21.875 42.071 21.875 35 21.875H15C13.8712 21.875 12.8325 21.875 11.875 21.884V16.875ZM30 36.875C30 39.6365 27.7615 41.875 25 41.875C22.2385 41.875 20 39.6365 20 36.875C20 34.1135 22.2385 31.875 25 31.875C27.7615 31.875 30 34.1135 30 36.875Z" fill="currentColor"/>
</svg>
