<svg viewBox="0 0 54 54" fill="none" xmlns="http://www.w3.org/2000/svg">
<path d="M5.68055 9.40466L4.44445 10.8422C6.34184 12.4664 7.91332 14.175 9.17051 15.9258H1.6875V17.8242H10.3971C12.1184 20.809 12.9727 23.9098 12.9727 27C12.9727 30.0902 12.1184 33.191 10.3971 36.1758H1.6875V38.0742H9.17051C7.91332 39.825 6.34184 41.5336 4.44445 43.1578L5.68055 44.5922C8.06309 42.5461 9.98895 40.3629 11.4539 38.0742H13.5316C13.9113 37.452 14.2594 36.8192 14.5758 36.1758H12.5508C14.0906 33.2016 14.8711 30.1113 14.8711 27C14.8711 23.8887 14.0906 20.7985 12.5508 17.8242H14.5758C14.2594 17.1809 13.9113 16.5481 13.5316 15.9258H11.4539C9.99 13.6371 8.06309 11.4434 5.68055 9.40466ZM12.2977 11.0742C16.5164 15.9152 18.668 21.4524 18.668 27C18.668 32.5477 16.5164 38.0848 12.2977 42.9258H20.25C23.8465 42.9258 28.8879 39.3399 32.8324 35.3953C34.8047 33.4336 36.5344 31.3981 37.7473 29.7738C38.359 28.9723 38.8441 28.2551 39.1605 27.7277C39.3082 27.4641 39.4242 27.232 39.498 27.0844C39.5086 27.0422 39.5191 27.0317 39.5191 27C39.5191 26.9684 39.5086 26.9473 39.498 26.9051C39.4348 26.7574 39.3187 26.536 39.1605 26.2723C38.8441 25.7344 38.3695 25.0277 37.7684 24.2156C36.5766 22.5914 34.868 20.5664 32.9062 18.6047C28.9828 14.6602 23.952 11.0742 20.25 11.0742H12.2977ZM43.875 24.5742C42.525 24.5742 41.4492 25.65 41.4492 27C41.4492 28.35 42.525 29.4258 43.875 29.4258C45.225 29.4258 46.3008 28.35 46.3008 27C46.3008 25.65 45.225 24.5742 43.875 24.5742ZM48.0938 26.0508C48.157 26.3567 48.1992 26.6731 48.1992 27C48.1992 27.327 48.157 27.6434 48.0938 27.9492H52.3125V26.0508H48.0938Z" fill="currentColor"/>
</svg>
