<svg viewBox="0 0 54 54" fill="none" xmlns="http://www.w3.org/2000/svg">
<path d="M12.2977 42.9258C16.5164 38.0848 18.668 32.5477 18.668 27C18.668 21.4523 16.5164 15.9152 12.2977 11.0742H20.25C23.8465 11.0742 28.8879 14.6602 32.8324 18.6047C34.8047 20.5664 36.5344 22.602 37.7473 24.2262C38.359 25.0277 38.8441 25.7449 39.1605 26.2723C39.3082 26.5359 39.4242 26.768 39.498 26.9156C39.5086 26.9578 39.5191 26.9684 39.5191 27C39.5191 27.0316 39.5086 27.0527 39.498 27.0949C39.4348 27.2426 39.3187 27.4641 39.1605 27.7277C38.8441 28.2656 38.3695 28.9723 37.7684 29.7844C36.5766 31.4086 34.868 33.4336 32.9062 35.3953C28.9828 39.3398 23.952 42.9258 20.25 42.9258H12.2977ZM1.6875 38.0742V36.1758H14.5758C14.2594 36.8191 13.9113 37.452 13.5316 38.0742H1.6875ZM41.1855 27.9492C41.2066 27.9176 41.2277 27.8754 41.2383 27.8438C41.3543 27.5906 41.4492 27.3797 41.4492 27C41.4492 26.6203 41.3438 26.4094 41.2383 26.1562C41.2277 26.1246 41.2066 26.0824 41.1855 26.0508H52.3125V27.9492H41.1855ZM1.6875 17.8242V15.9258H13.5316C13.9113 16.548 14.2594 17.1809 14.5758 17.8242H1.6875Z" fill="currentColor"/>
</svg>
