<svg viewBox="0 0 54 54" fill="none" xmlns="http://www.w3.org/2000/svg">
<path d="M11.0742 11.0742V42.9258H27C42.6094 42.9258 42.6094 11.0742 27 11.0742H11.0742ZM1.6875 15.9258V17.8242H9.17578V15.9258H1.6875ZM43.875 24.5742C42.525 24.5742 41.4492 25.65 41.4492 27C41.4492 28.35 42.525 29.4258 43.875 29.4258C45.225 29.4258 46.3008 28.35 46.3008 27C46.3008 25.65 45.225 24.5742 43.875 24.5742ZM48.0938 26.0508C48.157 26.3566 48.1992 26.673 48.1992 27C48.1992 27.327 48.157 27.6434 48.0938 27.9492H52.3125V26.0508H48.0938ZM1.6875 36.1758V38.0742H9.17578V36.1758H1.6875Z" fill="currentColor"/>
</svg>
