<svg viewBox="0 0 50 50" fill="none" xmlns="http://www.w3.org/2000/svg">
<path d="M37.6444 17.7264L19.811 8.80973C7.83187 2.80973 2.9152 7.72639 8.9152 19.7056L10.7277 23.3306C11.2485 24.3931 11.2485 25.6223 10.7277 26.6848L8.9152 30.289C2.9152 42.2681 7.81103 47.1848 19.811 41.1848L37.6444 32.2681C45.6444 28.2681 45.6444 21.7265 37.6444 17.7264ZM30.9152 26.5598H19.6652C18.811 26.5598 18.1027 25.8515 18.1027 24.9973C18.1027 24.1431 18.811 23.4348 19.6652 23.4348H30.9152C31.7694 23.4348 32.4777 24.1431 32.4777 24.9973C32.4777 25.8515 31.7694 26.5598 30.9152 26.5598Z" fill="currentColor"/>
</svg>
