<svg viewBox="0 0 50 50" fill="none" xmlns="http://www.w3.org/2000/svg">
<path d="M41.875 19.2113C38.1042 19.2113 36.5625 16.5446 38.4375 13.2737C39.5209 11.3779 38.875 8.96125 36.9792 7.87792L33.375 5.81542C31.7292 4.83625 29.6042 5.41958 28.625 7.06542L28.3959 7.46125C26.5209 10.7321 23.4375 10.7321 21.5417 7.46125L21.3125 7.06542C20.375 5.41958 18.25 4.83625 16.6042 5.81542L13 7.87792C11.1042 8.96125 10.4584 11.3988 11.5417 13.2946C13.4375 16.5446 11.8959 19.2113 8.12502 19.2113C5.95835 19.2113 4.16669 20.9821 4.16669 23.1696V26.8362C4.16669 29.0029 5.93752 30.7946 8.12502 30.7946C11.8959 30.7946 13.4375 33.4612 11.5417 36.7321C10.4584 38.6279 11.1042 41.0446 13 42.1279L16.6042 44.1904C18.25 45.1696 20.375 44.5863 21.3542 42.9404L21.5834 42.5446C23.4584 39.2738 26.5417 39.2738 28.4375 42.5446L28.6667 42.9404C29.6459 44.5863 31.7709 45.1696 33.4167 44.1904L37.0209 42.1279C38.9167 41.0446 39.5625 38.6071 38.4792 36.7321C36.5834 33.4612 38.125 30.7946 41.8959 30.7946C44.0625 30.7946 45.8542 29.0237 45.8542 26.8362V23.1696C45.8334 21.0029 44.0625 19.2113 41.875 19.2113ZM25 31.7737C21.2709 31.7737 18.2292 28.7321 18.2292 25.0029C18.2292 21.2737 21.2709 18.2321 25 18.2321C28.7292 18.2321 31.7709 21.2737 31.7709 25.0029C31.7709 28.7321 28.7292 31.7737 25 31.7737Z" fill="currentColor"/>
</svg>
