<svg viewBox="0 0 45 45" fill="none" xmlns="http://www.w3.org/2000/svg">
<g clip-path="url(#clip0_114_1192)">
<path d="M37.9688 0H7.03125C5.16645 0 3.37802 0.74079 2.05941 2.05941C0.74079 3.37802 0 5.16645 0 7.03125V37.9688C0 39.8336 0.74079 41.622 2.05941 42.9406C3.37802 44.2592 5.16645 45 7.03125 45H37.9688C39.8336 45 41.622 44.2592 42.9406 42.9406C44.2592 41.622 45 39.8336 45 37.9688V7.03125C45 5.16645 44.2592 3.37802 42.9406 2.05941C41.622 0.74079 39.8336 0 37.9688 0ZM7.03125 2.8125H37.9688C39.0876 2.8125 40.1607 3.25697 40.9519 4.04814C41.743 4.83931 42.1875 5.91237 42.1875 7.03125V11.25H2.8125V7.03125C2.8125 5.91237 3.25698 4.83931 4.04815 4.04814C4.83931 3.25697 5.91237 2.8125 7.03125 2.8125ZM2.8125 37.9688V14.0625H14.0625V42.1875H7.03125C5.91237 42.1875 4.83931 41.743 4.04815 40.9519C3.25698 40.1607 2.8125 39.0876 2.8125 37.9688ZM37.9688 42.1875H16.875V14.0625H42.1875V37.9688C42.1875 39.0876 41.743 40.1607 40.9519 40.9519C40.1607 41.743 39.0876 42.1875 37.9688 42.1875ZM5.625 18.2812C5.625 17.9083 5.77316 17.5506 6.03688 17.2869C6.3006 17.0232 6.65829 16.875 7.03125 16.875H9.84375C10.2167 16.875 10.5744 17.0232 10.8381 17.2869C11.1018 17.5506 11.25 17.9083 11.25 18.2812C11.25 18.6542 11.1018 19.0119 10.8381 19.2756C10.5744 19.5393 10.2167 19.6875 9.84375 19.6875H7.03125C6.65829 19.6875 6.3006 19.5393 6.03688 19.2756C5.77316 19.0119 5.625 18.6542 5.625 18.2812ZM11.25 26.7188C11.25 27.0917 11.1018 27.4494 10.8381 27.7131C10.5744 27.9768 10.2167 28.125 9.84375 28.125H7.03125C6.65829 28.125 6.3006 27.9768 6.03688 27.7131C5.77316 27.4494 5.625 27.0917 5.625 26.7188C5.625 26.3458 5.77316 25.9881 6.03688 25.7244C6.3006 25.4607 6.65829 25.3125 7.03125 25.3125H9.84375C10.2167 25.3125 10.5744 25.4607 10.8381 25.7244C11.1018 25.9881 11.25 26.3458 11.25 26.7188ZM11.25 35.1562C11.25 35.5292 11.1018 35.8869 10.8381 36.1506C10.5744 36.4143 10.2167 36.5625 9.84375 36.5625H7.03125C6.65829 36.5625 6.3006 36.4143 6.03688 36.1506C5.77316 35.8869 5.625 35.5292 5.625 35.1562C5.625 34.7833 5.77316 34.4256 6.03688 34.1619C6.3006 33.8982 6.65829 33.75 7.03125 33.75H9.84375C10.2167 33.75 10.5744 33.8982 10.8381 34.1619C11.1018 34.4256 11.25 34.7833 11.25 35.1562ZM39.375 18.2812C39.375 18.6542 39.2268 19.0119 38.9631 19.2756C38.6994 19.5393 38.3417 19.6875 37.9688 19.6875H21.0938C20.7208 19.6875 20.3631 19.5393 20.0994 19.2756C19.8357 19.0119 19.6875 18.6542 19.6875 18.2812C19.6875 17.9083 19.8357 17.5506 20.0994 17.2869C20.3631 17.0232 20.7208 16.875 21.0938 16.875H37.9688C38.3417 16.875 38.6994 17.0232 38.9631 17.2869C39.2268 17.5506 39.375 17.9083 39.375 18.2812ZM39.375 26.7188C39.375 27.0917 39.2268 27.4494 38.9631 27.7131C38.6994 27.9768 38.3417 28.125 37.9688 28.125H21.0938C20.7208 28.125 20.3631 27.9768 20.0994 27.7131C19.8357 27.4494 19.6875 27.0917 19.6875 26.7188C19.6875 26.3458 19.8357 25.9881 20.0994 25.7244C20.3631 25.4607 20.7208 25.3125 21.0938 25.3125H37.9688C38.3417 25.3125 38.6994 25.4607 38.9631 25.7244C39.2268 25.9881 39.375 26.3458 39.375 26.7188ZM39.375 35.1562C39.375 35.5292 39.2268 35.8869 38.9631 36.1506C38.6994 36.4143 38.3417 36.5625 37.9688 36.5625H21.0938C20.7208 36.5625 20.3631 36.4143 20.0994 36.1506C19.8357 35.8869 19.6875 35.5292 19.6875 35.1562C19.6875 34.7833 19.8357 34.4256 20.0994 34.1619C20.3631 33.8982 20.7208 33.75 21.0938 33.75H37.9688C38.3417 33.75 38.6994 33.8982 38.9631 34.1619C39.2268 34.4256 39.375 34.7833 39.375 35.1562Z" fill="currentColor"/>
</g>
<defs>
<clipPath id="clip0_114_1192">
<rect width="45" height="45" fill="white"/>
</clipPath>
</defs>
</svg>
